<?xml version="1.0" encoding="utf-8"?>
<!-- Generator: Adobe Illustrator 22.1.0, SVG Export Plug-In . SVG Version: 6.00 Build 0)  -->
<svg version="1.1" id="Слой_1" xmlns="http://www.w3.org/2000/svg" xmlns:xlink="http://www.w3.org/1999/xlink" x="0px" y="0px"
	 viewBox="0 0 110 110" style="enable-background:new 0 0 110 110;" xml:space="preserve">
<style type="text/css">
	.st0{fill:#FFFFFF;}
</style>
<path d="M95,107H16c-6.6,0-12-5.4-12-12V16C4,9.4,9.4,4,16,4h79c6.6,0,12,5.4,12,12v79C107,101.6,101.6,107,95,107z"/>
<polygon class="st0" points="21.9,25 21.9,91 31.4,91 31.4,43.2 32,43.2 51.4,90.9 59.3,90.9 78.8,43.2 79.4,43.2 79.4,91 88.8,91 
	88.8,25 76.8,25 55.7,76.3 55,76.3 34,25 "/>
</svg>
